<svg xmlns="http://www.w3.org/2000/svg" width="29" height="43" fill="none" xmlns:v="https://vecta.io/nano"><g clip-path="url(#K)"><path d="M25.232 9.086c-2.156-1.021-4.304-1.148-6.468-.253-2.195.91-3.451 2.668-4.312 4.845-.039-.15-.095-.301-.103-.451-.182-2.201.434-4.148 1.88-5.81 2.085-2.406 5.26-3.222 8.245-2.161.316.111.545.285.576.617l.261 2.905c.008.079-.04.174-.079.309z" fill="url(#A)"/><path d="M22.302 27.577l-.253-.419c-.924-1.567-1.129-3.206-.3-4.868.355-.704.829-1.369 1.343-1.979.505-.594.877-.617 1.39-.032.979 1.108 1.84 2.319 1.872 3.895.055 2.232-1.271 4.243-3.333 5.114-.884.372-1.801.586-2.748.641-.268.016-.411-.071-.45-.364l-.237-1.52c-.063-.301.047-.42.332-.42l1.895-.016c.15.008.284-.016.49-.032zm3.08-4.409v-.594c-.071-.823-.411-1.219-1.208-1.456-.727-.214-1.761.325-1.887 1.021-.3 1.646.103 3.103 1.2 4.369.221.253.387.245.6 0 .853-.958 1.335-2.05 1.295-3.34z" fill="url(#B)"/><path d="M1.768 32.041c.474-1.971 1.066-3.887 2.717-5.248.798-.657 1.761-.997 2.78-.989 1.177.016 2.353.166 3.53.245l2.164.111c1.145-.04 1.959-.617 2.385-1.702.055-.142.111-.293.245-.435 0 .127.016.261 0 .38-.34 2.272-1.485 3.34-3.846 3.53l-4.367.253c-1.414.119-2.756.451-3.886 1.385-.679.562-1.114 1.282-1.445 2.09l-.182.427-.095-.047z" fill="url(#C)"/><path d="M3.956 9.038c-.15-.879-.213-1.749.016-2.62.04-.142.197-.293.332-.356 3.822-1.734 8.237.522 8.979 4.401.087.475.095.974.071 1.488-2.235-3.894-5.433-4.52-9.398-2.913z" fill="url(#D)"/><path d="M17.611 1.162c-2.559 1.789-3.633 4.267-3.649 7.354-.111-.142-.174-.198-.205-.269-1.185-2.858-.924-5.525 1.019-7.979.205-.253.411-.325.719-.222.742.245 1.437.57 2.117 1.116z" fill="url(#E)"/><path d="M13.363 34.447c-.213-1.821-.348-3.641.94-5.201.624-.752 1.485-1.116 2.417-1.306.095-.024.3.111.332.206l.363 1.536c.047.214-.024.325-.245.356l-.663.111c-1.358.317-2.172 1.227-2.606 2.501-.166.491-.229 1.021-.34 1.536l-.079.293c-.032-.016-.071-.024-.118-.032z" fill="url(#F)"/><path d="M.205 19.866c-.071-2.335.174-4.615 1.421-6.657 1.271-2.098 3.428-2.866 5.805-2.161 1.469.435 2.725 1.251 3.87 2.24 2.124 1.829 3.728 4.069 5.047 6.53 1.556 2.897 2.614 5.961 3.104 9.214.387 2.565.419 5.121-.419 7.623a7.95 7.95 0 0 1-1.374 2.478c-.316.396-.513.879-.774 1.322-.513.879-1.153 1.631-2.006 2.193-.3.198-.545.214-.853 0-1.106-.752-1.856-1.773-2.417-2.968-.063-.142-.126-.293-.229-.412-1.216-1.314-1.738-2.929-2.006-4.646-.3-1.908-.19-3.808.087-5.715.047-.332.197-.499.537-.491l1.027-.024c.324-.024.371.111.324.404l-.49 3.079c-.245 2.343-.118 4.662.687 6.903.103.293.316.586.561.776 1.319 1.013 2.717 1.171 4.201.348.592-.325.995-.768 1.192-1.433.616-2.05.742-4.14.584-6.261-.205-2.763-.9-5.406-1.998-7.939-1.121-2.588-2.59-4.955-4.667-6.887-1.256-1.172-2.654-2.129-4.367-2.494-2.29-.483-4.107.293-5.41 2.193-.482.704-.782 1.544-1.153 2.327-.071.15-.111.317-.166.475-.055 0-.087-.008-.118-.016z" fill="url(#G)"/><path d="M16.197 18.702l-1.382-2.161c-.047-.079-.008-.269.063-.348 1.706-2.145 3.593-4.061 6.247-5.026 2.298-.839 4.462-.23 5.876 1.662.734.982 1.177 2.098 1.374 3.293.19 1.124.237 2.272.34 3.412.008.127-.016.253-.024.372l-.103.024-.197-.57c-.379-1.077-.853-2.098-1.651-2.937-1.635-1.742-3.585-2.058-5.773-1.29-1.508.53-2.74 1.488-3.854 2.612l-.916.958z" fill="url(#H)"/><path d="M12.794 19.51l.584.728c.229.317.474.641.656.989a.75.75 0 0 1 .008.57l-1.73 3.72c-.111.237-.221.356-.498.317l-1.256-.135c-.205-.024-.363-.103-.284-.364.584-1.995 1.366-3.902 2.385-5.715.016-.032.055-.047.134-.111z" fill="url(#I)"/><path d="M4.43 21.537l.711.451c.727.538.734.546 1.295-.166.237-.293.498-.38.821-.174l.995.641a.48.48 0 0 1 .134.752l-.877 1.171c-.213.269-.474.301-.758.087l-.813-.625c-.19-.15-.34-.166-.49.055-.126.182-.3.332-.426.514-.221.309-.458.364-.766.127l-.995-.776c-.229-.182-.284-.412-.103-.657l.853-1.132c.095-.111.253-.166.419-.269z" fill="url(#J)"/><path d="M13.473 38.349c-.15-.063-.229-.079-.292-.127l-.971-.744a.39.39 0 0 1-.079-.594l.726-.982c.19-.237.442-.269.703-.087l.735.53c.189.142.324.135.45-.071.584-.95.813-.665 1.469-.23.813.538.821.594.221 1.393-.734.974-.679 1.053-1.682.261-.403-.317-.434-.301-.782.119l-.498.53z" fill="url(#H)"/></g><defs><radialGradient id="A" cx="0" cy="0" r="1" gradientTransform="translate(14.3996 21.5115) rotate(90.1475) scale(21.5112 14.3351)" href="#L"><stop stop-color="#02cb13"/><stop offset="1" stop-color="#059344"/></radialGradient><radialGradient id="B" cx="0" cy="0" r="1" gradientTransform="translate(14.3997 21.5115) rotate(90.1475) scale(21.5112 14.3351)" href="#L"><stop stop-color="#02cb13"/><stop offset="1" stop-color="#059344"/></radialGradient><radialGradient id="C" cx="0" cy="0" r="1" gradientTransform="translate(14.3996 21.5117) rotate(90.1475) scale(21.5112 14.3351)" href="#L"><stop stop-color="#02cb13"/><stop offset="1" stop-color="#059344"/></radialGradient><radialGradient id="D" cx="0" cy="0" r="1" gradientTransform="translate(14.3997 21.5116) rotate(90.1475) scale(21.5112 14.3351)" href="#L"><stop stop-color="#02cb13"/><stop offset="1" stop-color="#059344"/></radialGradient><radialGradient id="E" cx="0" cy="0" r="1" gradientTransform="translate(14.3997 21.5112) rotate(90.1475) scale(21.5112 14.3351)" href="#L"><stop stop-color="#02cb13"/><stop offset="1" stop-color="#059344"/></radialGradient><radialGradient id="F" cx="0" cy="0" r="1" gradientTransform="translate(14.3998 21.511) rotate(90.1475) scale(21.5112 14.3351)" href="#L"><stop stop-color="#02cb13"/><stop offset="1" stop-color="#059344"/></radialGradient><radialGradient id="G" cx="0" cy="0" r="1" gradientTransform="translate(14.4555 25.3672) rotate(90) scale(17.428 10.5694)" href="#L"><stop stop-color="#fc0"/><stop offset="1" stop-color="#a99036"/></radialGradient><radialGradient id="H" cx="0" cy="0" r="1" gradientTransform="translate(14.4555 25.3671) rotate(90) scale(17.428 10.5694)" href="#L"><stop stop-color="#fc0"/><stop offset="1" stop-color="#a99036"/></radialGradient><radialGradient id="I" cx="0" cy="0" r="1" gradientTransform="translate(14.4555 25.3673) rotate(90) scale(17.428 10.5694)" href="#L"><stop stop-color="#fc0"/><stop offset="1" stop-color="#a99036"/></radialGradient><radialGradient id="J" cx="0" cy="0" r="1" gradientTransform="translate(14.4555 25.3679) rotate(90) scale(17.428 10.5694)" href="#L"><stop stop-color="#fc0"/><stop offset="1" stop-color="#a99036"/></radialGradient><clipPath id="K"><path fill="#fff" d="M0 0h29v43H0z"/></clipPath><linearGradient id="L" gradientUnits="userSpaceOnUse"/></defs></svg>